# xmcd
#
# Track frame offsets:
#        150
#        23755
#        45610
#        68957
#        76637
#        87300
#        102917
#        132995
#        165580
#        190252
#        214277
#        251212
#        280120
#
# Disc length: 4022 seconds
#
# Revision: 0
# Processed by: cddbd v1.5.1PL0 Copyright (c) Steve Scherf et al.
# Submitted via: ExactAudioCopy v0.95b2
#
DISCID=b10fb40d
DTITLE=Masters At Work - The Album
DYEAR=1900
DGENRE=
TTITLE0=Give It To Me
TTITLE1=Donde Lo Consequeste
TTITLE2=The Buddah-Chaint
TTITLE3=Too Smooth
TTITLE4=Get Up
TTITLE5=Bloodvibes
TTITLE6=Justa "LL" Dope
TTITLE7=Can't Stop Rythm
TTITLE8=When You Touch Me
TTITLE9=All That
TTITLE10=I Can't Get No Sleep
TTITLE11=The Buff Dance
TTITLE12=It's The Way Of Live
EXTD=
EXTT0=
EXTT1=
EXTT2=
EXTT3=
EXTT4=
EXTT5=
EXTT6=
EXTT7=
EXTT8=
EXTT9=
EXTT10=
EXTT11=
EXTT12=
PLAYORDER=
